# xmcd
# Copyright (C) 1995-1998 Ti Kan
#
# Track frame offsets:
#       150
#       16741
#       27200
#       47047
#
# Disc length: 903 seconds
#
# Revision: 0
# Processed by: cddbd v1.5.1PL2 Copyright (c) Steve Scherf et al.
# Submitted via: CD-Transfer v1.0
#
DISCID=23038504
DTITLE=Bluesaholics - Le Téléphone
DYEAR=2005
DGENRE=
TTITLE0=Le Téléphone
TTITLE1=Sunny Sally
TTITLE2=Hallelujah, I Love Her So
TTITLE3=I Got Mine
EXTD=
EXTT0=
EXTT1=
EXTT2=
EXTT3=
PLAYORDER=
